<?xml version="1.0" standalone="no"?>
<!DOCTYPE svg PUBLIC "-//W3C//DTD SVG 20010904//EN"
 "http://www.w3.org/TR/2001/REC-SVG-20010904/DTD/svg10.dtd">
<svg version="1.0" xmlns="http://www.w3.org/2000/svg"
 width="1078.000000pt" height="1280.000000pt" viewBox="0 0 1078.000000 1280.000000"
 preserveAspectRatio="xMidYMid meet">
<g transform="translate(0.000000,1280.000000) scale(0.100000,-0.100000)"
fill="#000000" stroke="none">
<path d="M5325 12783 c-32 -25 -637 -320 -929 -453 -980 -445 -1750 -702
-2646 -885 -148 -30 -872 -153 -1325 -225 -176 -28 -344 -58 -374 -67 l-54
-17 6 -240 c5 -237 18 -534 57 -1361 42 -895 60 -1165 115 -1785 19 -214 35
-324 69 -495 201 -999 392 -1659 694 -2400 172 -423 238 -562 419 -880 313
-548 537 -893 887 -1365 241 -325 473 -587 843 -951 236 -233 1046 -923 1268
-1081 39 -27 152 -99 253 -159 101 -61 223 -137 273 -169 166 -109 488 -261
513 -241 6 4 46 22 89 40 149 61 322 148 417 208 53 34 183 114 290 179 107
64 220 135 250 157 117 86 429 344 760 628 358 307 699 639 976 950 268 300
700 899 971 1344 394 648 569 1001 806 1625 170 449 272 778 392 1265 168 686
237 1072 279 1565 42 487 105 1676 126 2365 5 193 15 451 21 573 6 126 8 227
3 232 -13 11 -509 103 -814 150 -1108 171 -1675 307 -2500 602 -222 79 -661
257 -890 360 -532 241 -1101 515 -1115 538 -10 16 -107 12 -130 -7z"/>
</g>
</svg>
